<svg width="280" height="280" viewBox="0 0 280 280" fill="none" xmlns="http://www.w3.org/2000/svg">
<path d="M167.874 90.1009C179.392 78.4246 182.186 68.3808 182.259 45.8089C214.883 103.876 202.628 155.018 147.496 187.483H131.186C83.3592 162 67.6113 136.018 90.5577 64.9212C92.2756 89.5518 96.4177 96.5071 107.34 101.326C104.597 89.4741 100.483 76.5737 116.63 55.8201C129.638 42.7019 140.329 20.2025 122.024 0C161.252 24.6624 176.575 52.2025 167.874 90.1009Z" fill="#4BA1DB" fill-opacity="0.5"/>
<path d="M114.215 108.916C104.624 99.4959 99.1336 94.085 99.0731 75.8742C71.9056 122.722 85.2747 161.291 131.185 187.483L131.185 161.294C112.78 146 113.813 133.127 126.943 122.623V142.937H151.15V122.623C165.012 136.884 164.65 147.901 147.656 161.294V187.483C187.483 166.924 197.709 145.961 178.601 88.6015C177.17 108.473 173.721 114.085 164.625 117.972C166.91 108.411 170.336 98.0027 156.889 81.2589C146.056 70.6753 137.154 52.523 152.397 36.2239C119.73 56.1212 106.97 78.3403 114.215 108.916Z" fill="#4BA1DB"/>
<path d="M147.663 161.195V187.483H130.964V161.195C112.302 145.843 113.711 132.921 127.023 122.378V142.769H151.205V122.378C165.26 136.693 164.894 147.752 147.663 161.195Z" fill="white"/>
<path d="M5.16578 256.072H0.249554V252.353H14.5241V256.072H9.58289V269.797H5.16578V256.072ZM15.8915 252.353H20.3087V259.091H27.1464V252.353H31.5636V269.797H27.1464V262.76H20.3087V269.797H15.8915V252.353ZM40.2923 252.353H44.6346L51.5971 269.797H47.0802L45.6827 266.204H39.2442L37.8467 269.797H33.3048L40.2923 252.353ZM44.5846 262.81L42.4634 256.945L40.3173 262.81H44.5846ZM54.2724 256.072H49.3562V252.353H63.6307V256.072H58.6895V269.797H54.2724V256.072ZM64.2064 268.25H68.7483L66.128 273.516H62.1351L64.2064 268.25ZM78.9869 252.353H91.3648V256.072H83.404V259.341H89.2186V262.81H83.404V269.797H78.9869V252.353ZM92.61 252.353H97.0271V269.797H92.61V252.353ZM105.078 261.063L98.789 252.353H103.855L107.623 257.569L111.392 252.353H116.457L110.144 261.063L116.457 269.797H111.392L107.623 264.582L103.83 269.797H98.7641L105.078 261.063ZM126.68 252.353H139.058V256.072H131.097V259.341H136.912V262.81H131.097V266.079H139.058V269.797H126.68V252.353ZM140.194 252.353H144.911L149.353 263.958L153.795 252.353H158.486L151.524 269.797H147.182L140.194 252.353ZM160.238 252.353H172.616V256.072H164.655V259.341H170.47V262.81H164.655V266.079H172.616V269.797H160.238V252.353ZM174.373 252.353H182.209C184.256 252.353 185.853 252.869 187.001 253.901C188.165 254.932 188.748 256.413 188.748 258.343C188.748 259.64 188.465 260.747 187.899 261.662C187.333 262.577 186.535 263.259 185.503 263.708L188.598 269.797H184.056L181.286 264.332H178.79V269.797H174.373V252.353ZM181.436 260.614C182.317 260.614 182.999 260.447 183.482 260.115C183.964 259.765 184.206 259.175 184.206 258.343C184.206 257.478 183.964 256.887 183.482 256.571C183.016 256.238 182.334 256.072 181.436 256.072H178.79V260.614H181.436ZM194.813 263.159L188.375 252.353H193.091L197.034 259.116L201.152 252.353H205.843L199.23 263.159V269.797H194.813V263.159ZM210.999 256.072H206.083V252.353H220.358V256.072H215.417V269.797H210.999V256.072ZM221.725 252.353H226.142V259.091H232.98V252.353H237.397V269.797H232.98V262.76H226.142V269.797H221.725V252.353ZM239.638 252.353H244.055V269.797H239.638V252.353ZM246.291 252.353H250.658L257.071 262.735V252.353H261.489V269.797H257.146L250.708 259.391V269.797H246.291V252.353ZM272.749 270.172C270.852 270.172 269.18 269.806 267.733 269.074C266.302 268.342 265.196 267.293 264.414 265.929C263.632 264.548 263.241 262.934 263.241 261.088C263.241 259.241 263.632 257.636 264.414 256.271C265.196 254.891 266.302 253.834 267.733 253.102C269.18 252.353 270.852 251.979 272.749 251.979C274.013 251.979 275.128 252.104 276.093 252.353C277.074 252.586 277.981 252.969 278.813 253.501V257.694C278.081 257.112 277.249 256.696 276.318 256.446C275.402 256.18 274.346 256.047 273.148 256.047C272.117 256.047 271.193 256.255 270.378 256.671C269.58 257.07 268.947 257.652 268.482 258.418C268.016 259.183 267.783 260.073 267.783 261.088C267.783 262.668 268.24 263.916 269.155 264.831C270.087 265.746 271.343 266.204 272.924 266.204C273.805 266.204 274.546 266.054 275.145 265.754V262.959H272.474V259.865H279.337V268.549C277.557 269.631 275.361 270.172 272.749 270.172Z" fill="#ABABAB"/>
<path d="M83.1015 206.595H107.857V214.032H91.9357V220.57H103.565V227.507H91.9357V241.483H83.1015V206.595ZM110.348 206.595H119.182V241.483H110.348V206.595ZM135.283 224.014L122.706 206.595H132.838L140.374 217.026L147.911 206.595H158.043L145.415 224.014L158.043 241.483H147.911L140.374 231.051L132.788 241.483H122.656L135.283 224.014ZM171.65 228.206L158.773 206.595H168.206L176.092 220.121L184.327 206.595H193.711L180.484 228.206V241.483H171.65V228.206Z" fill="#ABABAB"/>
</svg>
