<svg width="325" height="150" viewBox="0 0 325 150" fill="none" xmlns="http://www.w3.org/2000/svg">
<path d="M69.3054 72.0874C78.4075 62.7455 80.6151 54.7097 80.6726 36.6505C106.453 83.1088 96.7689 124.026 53.2017 150H40.3126C2.51787 129.612 -9.92675 108.824 8.20649 51.9417C9.564 71.6481 12.8373 77.2129 21.4684 81.068C19.3005 71.5859 16.0495 61.2646 28.8096 44.6602C39.0895 34.1647 47.5377 16.1635 33.0724 0C64.0724 19.7318 76.1813 41.7659 69.3054 72.0874Z" fill="#4BA1DB" fill-opacity="0.5"/>
<path d="M26.9023 87.1408C19.3225 79.6039 14.9841 75.2748 14.9362 60.7048C-6.53273 98.1869 4.03214 129.044 40.3126 150L40.3126 129.047C25.7677 116.81 26.584 106.511 36.9599 98.1069V114.36H56.0893V98.1069C67.0437 109.517 66.7582 118.332 53.3282 129.047V150C84.8017 133.551 92.8826 116.78 77.7822 70.8876C76.6517 86.7864 73.9259 91.276 66.7384 94.3863C68.5437 86.7363 71.2509 78.4092 60.625 65.0129C52.0644 56.5453 45.0293 42.0221 57.0752 28.9816C31.2601 44.9009 21.1764 62.6778 26.9023 87.1408Z" fill="#4BA1DB"/>
<path d="M53.3339 128.967V149.999H40.1374V128.967C25.3903 116.685 26.5034 106.346 37.0235 97.9106V114.225H56.1333V97.9106C67.2399 109.364 66.9505 118.212 53.3339 128.967Z" fill="white"/>
<path d="M107.801 107.924H103.928V104.994H115.174V107.924H111.281V118.737H107.801V107.924ZM116.251 104.994H119.731V110.302H125.118V104.994H128.598V118.737H125.118V113.193H119.731V118.737H116.251V104.994ZM135.474 104.994H138.895L144.38 118.737H140.822L139.721 115.906H134.648L133.547 118.737H129.969L135.474 104.994ZM138.856 113.232L137.185 108.612L135.494 113.232H138.856ZM146.488 107.924H142.615V104.994H153.86V107.924H149.968V118.737H146.488V107.924ZM154.314 117.518H157.892L155.828 121.666H152.682L154.314 117.518ZM165.958 104.994H175.71V107.924H169.438V110.499H174.019V113.232H169.438V118.737H165.958V104.994ZM176.691 104.994H180.171V118.737H176.691V104.994ZM186.513 111.856L181.559 104.994H185.55L188.518 109.103L191.487 104.994H195.478L190.504 111.856L195.478 118.737H191.487L188.518 114.628L185.53 118.737H181.539L186.513 111.856ZM203.531 104.994H213.283V107.924H207.011V110.499H211.592V113.232H207.011V115.807H213.283V118.737H203.531V104.994ZM214.178 104.994H217.894L221.393 114.136L224.893 104.994H228.589L223.104 118.737H219.683L214.178 104.994ZM229.969 104.994H239.72V107.924H233.449V110.499H238.03V113.232H233.449V115.807H239.72V118.737H229.969V104.994ZM241.105 104.994H247.278C248.89 104.994 250.148 105.401 251.053 106.213C251.97 107.026 252.429 108.192 252.429 109.713C252.429 110.735 252.206 111.607 251.76 112.327C251.315 113.048 250.686 113.586 249.873 113.94L252.311 118.737H248.733L246.551 114.431H244.585V118.737H241.105V104.994ZM246.669 111.502C247.363 111.502 247.901 111.371 248.281 111.109C248.661 110.833 248.851 110.368 248.851 109.713C248.851 109.031 248.661 108.566 248.281 108.317C247.914 108.055 247.376 107.924 246.669 107.924H244.585V111.502H246.669ZM257.207 113.507L252.135 104.994H255.851L258.957 110.322L262.201 104.994H265.897L260.687 113.507V118.737H257.207V113.507ZM269.959 107.924H266.086V104.994H277.332V107.924H273.439V118.737H269.959V107.924ZM278.409 104.994H281.889V110.302H287.276V104.994H290.756V118.737H287.276V113.193H281.889V118.737H278.409V104.994ZM292.521 104.994H296.001V118.737H292.521V104.994ZM297.762 104.994H301.203L306.255 113.173V104.994H309.735V118.737H306.314L301.242 110.538V118.737H297.762V104.994ZM318.606 119.032C317.112 119.032 315.795 118.743 314.655 118.167C313.527 117.59 312.656 116.764 312.04 115.689C311.424 114.602 311.116 113.33 311.116 111.875C311.116 110.42 311.424 109.156 312.04 108.081C312.656 106.993 313.527 106.161 314.655 105.584C315.795 104.994 317.112 104.699 318.606 104.699C319.602 104.699 320.48 104.798 321.241 104.994C322.014 105.178 322.728 105.479 323.384 105.899V109.202C322.807 108.743 322.152 108.415 321.418 108.218C320.697 108.009 319.864 107.904 318.921 107.904C318.108 107.904 317.381 108.068 316.738 108.395C316.109 108.71 315.611 109.169 315.244 109.772C314.877 110.375 314.694 111.076 314.694 111.875C314.694 113.12 315.054 114.103 315.775 114.824C316.509 115.545 317.499 115.906 318.744 115.906C319.438 115.906 320.022 115.788 320.494 115.552V113.35H318.39V110.912H323.797V117.754C322.394 118.606 320.664 119.032 318.606 119.032Z" fill="#ABABAB"/>
<path d="M105.501 67.9952H125.004V73.8539H112.461V79.0049H121.623V84.4704H112.461V95.4801H105.501V67.9952ZM126.966 67.9952H133.926V95.4801H126.966V67.9952ZM146.611 81.718L136.702 67.9952H144.684L150.621 76.2131L156.559 67.9952H164.541L154.593 81.718L164.541 95.4801H156.559L150.621 87.2621L144.645 95.4801H136.663L146.611 81.718ZM175.261 85.0209L165.116 67.9952H172.548L178.76 78.651L185.248 67.9952H192.641L182.221 85.0209V95.4801H175.261V85.0209Z" fill="#ABABAB"/>
</svg>
