<svg id="Filled" height="512" viewBox="0 0 512 512" width="512" xmlns="http://www.w3.org/2000/svg"><path d="m488 304c0 128.13-103.87 184-232 184s-232-55.87-232-184 103.87-280 232-280 232 151.87 232 280z" fill="#ffc70d"/><circle cx="248" cy="232" fill="#fff" r="16"/><path d="m344 216h-88s24 16 32 32c5.06 10.119 24 48 56 48a40 40 0 0 0 40-40c0-22.091-16-40-40-40z" fill="#3db4d4"/><path d="m256 456c-122.746 0-223.161-51.321-231.389-168.276-.361 5.455-.611 10.892-.611 16.276 0 128.13 103.87 184 232 184s232-55.87 232-184c0-5.384-.25-10.821-.611-16.276-8.228 116.955-108.643 168.276-231.389 168.276z" fill="#f89f00"/><path d="m256 16c-132.945 0-240 157.555-240 288 0 120.227 89.719 192 240 192s240-71.773 240-192c0-130.445-107.055-288-240-288zm0 464c-140.262 0-224-65.8-224-176 0-123.2 99.918-272 224-272s224 148.8 224 272c0 110.2-83.738 176-224 176z"/><path d="m344 208h-96a24 24 0 1 0 21.941 33.646c4.6 4.588 9.163 9.05 12.653 12.252 1.676 1.532 4.476 5.836 7.183 10 9.758 15 26.094 40.1 54.223 40.1a48.052 48.052 0 0 0 48-48c0-27.365-20.637-47.998-48-47.998zm-96 32a8 8 0 1 1 8-8 8.008 8.008 0 0 1 -8 8zm96 48c-19.453 0-31.8-18.969-40.812-32.828-3.7-5.68-6.614-10.164-9.782-13.07-4.855-4.454-12.105-11.68-18.441-18.1h69.035c18.543 0 32 13.461 32 32a32.034 32.034 0 0 1 -32 31.998z"/><path d="m184 160a8 8 0 0 0 -8 8 8 8 0 0 1 -16 0 8 8 0 0 0 -16 0 24 24 0 0 0 48 0 8 8 0 0 0 -8-8z"/><path d="m344 192a24.027 24.027 0 0 0 24-24 8 8 0 0 0 -16 0 8 8 0 0 1 -16 0 8 8 0 0 0 -16 0 24.027 24.027 0 0 0 24 24z"/></svg>