<svg width="37" height="37" viewBox="0 0 37 37" fill="none" xmlns="http://www.w3.org/2000/svg">
<g clip-path="url(#clip0)">
<path d="M13.128 11.3516V18.6968H15.799V14.0226C15.799 13.6538 16.098 13.3549 16.4667 13.3549H20.4731C20.8419 13.3549 21.1409 13.6538 21.1409 14.0226V18.6968H23.8118V11.3516C23.8118 10.9829 24.1108 10.6839 24.4796 10.6839H25.1874L18.4699 5.51709L11.7524 10.6839H12.4603C12.829 10.6839 13.128 10.9829 13.128 11.3516Z" fill="#4BA1DB"/>
<path d="M17.1348 14.6902H19.8057V18.6966H17.1348V14.6902Z" fill="#4BA1DB"/>
<path d="M18.47 37.0001C20.9825 33.8629 31.8247 19.9454 31.8247 13.3547C31.8247 5.97899 25.8454 0 18.47 0C11.0942 0 5.11523 5.97899 5.11523 13.3547C5.11523 19.9467 15.9572 33.8635 18.47 37.0001ZM9.38217 10.8246L18.0628 4.14728C18.3027 3.96241 18.6372 3.96241 18.8772 4.14728L27.5578 10.8246C27.7824 10.9997 27.8715 11.2977 27.7795 11.5671C27.6879 11.8364 27.4352 12.018 27.1506 12.0193H25.1474V19.3644C25.1474 19.7331 24.8484 20.0321 24.4796 20.0321H12.4603C12.0916 20.0321 11.7926 19.7331 11.7926 19.3644V12.0193H9.7894C9.50378 12.0193 9.24979 11.8373 9.15752 11.5667C9.06558 11.2961 9.15589 10.9971 9.38217 10.8227V10.8246Z" fill="#4BA1DB"/>
</g>
<defs>
<clipPath id="clip0">
<rect width="37" height="37" fill="white"/>
</clipPath>
</defs>
</svg>
