<svg width="66" height="66" viewBox="0 0 66 66" fill="none" xmlns="http://www.w3.org/2000/svg">
<path d="M66 33C66 51.2256 51.2256 66 33 66C14.7744 66 0 51.2256 0 33C0 14.7744 14.7744 0 33 0C51.2256 0 66 14.7744 66 33Z" fill="url(#paint0_linear)"/>
<path d="M50.3434 13.723H48.3837V10.1836H44.5165V13.723H21.4835V10.1836H17.6163V13.723H15.6566C12.6389 13.723 10.1836 16.1782 10.1836 19.196V50.3434C10.1836 53.3611 12.6389 55.8164 15.6566 55.8164H50.3434C53.3611 55.8164 55.8164 53.3611 55.8164 50.3434V19.196C55.8164 16.1782 53.3611 13.723 50.3434 13.723ZM15.6566 17.5902H17.6163V21.1295H21.4835V17.5902H44.5165V21.1295H48.3837V17.5902H50.3434C51.2287 17.5902 51.9492 18.3107 51.9492 19.196V23.2797H14.0508V19.196C14.0508 18.3107 14.7713 17.5902 15.6566 17.5902ZM50.3434 51.9492H15.6566C14.7713 51.9492 14.0508 51.2287 14.0508 50.3434V27.1469H51.9492V50.3434C51.9492 51.2287 51.2287 51.9492 50.3434 51.9492Z" fill="white"/>
<path d="M17.0728 30.6993H20.6121V34.2387H17.0728V30.6993Z" fill="white"/>
<path d="M24.1514 30.6993H27.6907V34.2387H24.1514V30.6993Z" fill="white"/>
<path d="M31.23 30.6993H34.7699V34.2387H31.23V30.6993Z" fill="white"/>
<path d="M38.3091 30.6993H41.8485V34.2387H38.3091V30.6993Z" fill="white"/>
<path d="M45.3882 30.6993H48.9276V34.2387H45.3882V30.6993Z" fill="white"/>
<path d="M17.0728 37.7781H20.6121V41.318H17.0728V37.7781Z" fill="white"/>
<path d="M24.1514 37.7781H27.6907V41.318H24.1514V37.7781Z" fill="white"/>
<path d="M31.23 37.7781H34.7699V41.318H31.23V37.7781Z" fill="white"/>
<path d="M38.3091 37.7781H41.8485V41.318H38.3091V37.7781Z" fill="white"/>
<path d="M17.0728 44.8574H20.6121V48.3968H17.0728V44.8574Z" fill="white"/>
<path d="M24.1514 44.8574H27.6907V48.3968H24.1514V44.8574Z" fill="white"/>
<path d="M31.23 44.8574H34.7699V48.3968H31.23V44.8574Z" fill="white"/>
<path d="M38.3091 44.8574H41.8485V48.3968H38.3091V44.8574Z" fill="white"/>
<path d="M45.3882 37.7781H48.9276V41.318H45.3882V37.7781Z" fill="white"/>
<defs>
<linearGradient id="paint0_linear" x1="0" y1="33" x2="66" y2="33" gradientUnits="userSpaceOnUse">
<stop stop-color="#00F38D"/>
<stop offset="1" stop-color="#009EFF"/>
</linearGradient>
</defs>
</svg>
