<svg width="66" height="66" viewBox="0 0 66 66" fill="none" xmlns="http://www.w3.org/2000/svg">
<path d="M66 33C66 51.2256 51.2256 66 33 66C14.7744 66 0 51.2256 0 33C0 14.7744 14.7744 0 33 0C51.2256 0 66 14.7744 66 33Z" fill="url(#paint0_linear)"/>
<path d="M51.9055 31.7813C51.4656 27.3561 49.4886 23.1842 46.3386 20.0341C43.6466 17.3422 40.3517 15.6124 36.8847 14.8432V12.4115C38.3007 12.0592 39.3533 10.7775 39.3533 9.25396C39.3533 7.45969 37.8936 6 36.0993 6H29.2086C27.4143 6 25.9546 7.45969 25.9546 9.25396C25.9546 10.7774 27.0072 12.0592 28.4231 12.4115V14.85C24.9668 15.6224 21.6828 17.3499 18.9985 20.0342C18.411 20.6217 17.8693 21.2379 17.3735 21.8783C17.3495 21.8765 17.3254 21.8747 17.3009 21.8747H10.4809C9.95246 21.8747 9.52389 22.3032 9.52389 22.8318C9.52389 23.3603 9.95246 23.7888 10.4809 23.7888H16.0712C15.3695 24.9636 14.8037 26.1973 14.3731 27.4673H3.95705C3.42857 27.4673 3 27.8958 3 28.4243C3 28.9529 3.42857 29.3814 3.95705 29.3814H13.8322C13.5564 30.5922 13.3981 31.8243 13.3572 33.06H9.12509C8.59661 33.06 8.16805 33.4885 8.16805 34.017C8.16805 34.5456 8.59661 34.9741 9.12509 34.9741H13.3878C13.4685 36.2129 13.6677 37.4452 13.9854 38.6527H7.78523C7.25675 38.6527 6.82818 39.0812 6.82818 39.6097C6.82818 40.1383 7.25675 40.5668 7.78523 40.5668H14.5961C15.535 43.0504 17.0022 45.3782 18.9985 47.3744C22.1515 50.5275 26.3277 52.505 30.7575 52.9426C31.3897 53.005 32.0224 53.0359 32.6542 53.0359C36.3888 53.0359 40.0759 51.9551 43.2045 49.9178C43.6474 49.6293 43.7727 49.0364 43.4843 48.5935C43.1958 48.1506 42.6029 48.0253 42.16 48.3138C35.3117 52.7733 26.14 51.8091 20.3519 46.021C13.5605 39.2296 13.5605 28.1792 20.3519 21.3878C27.1432 14.5965 38.1935 14.5965 44.985 21.3878C50.7655 27.1683 51.735 36.3321 47.2902 43.1771C47.0023 43.6204 47.1283 44.2132 47.5715 44.501C48.015 44.7889 48.6076 44.6628 48.8954 44.2195C51.2702 40.5622 52.3392 36.1449 51.9055 31.7813ZM27.8687 9.25405C27.8687 8.51521 28.4698 7.91419 29.2086 7.91419H36.0993C36.8382 7.91419 37.4392 8.51521 37.4392 9.25405C37.4392 9.99289 36.8382 10.5939 36.0993 10.5939H35.9276H29.3802H29.2086C28.4698 10.5939 27.8687 9.99279 27.8687 9.25405ZM30.3372 14.521V12.508H34.9706V14.5175C33.432 14.3345 31.8755 14.3357 30.3372 14.521Z" fill="white"/>
<path d="M45.6621 45.7405C45.4095 45.7405 45.1635 45.8429 44.9856 46.0209C44.8066 46.1989 44.7051 46.4458 44.7051 46.6975C44.7051 46.9492 44.8066 47.1961 44.9856 47.3741C45.1635 47.5531 45.4095 47.6545 45.6621 47.6545C45.9138 47.6545 46.1598 47.5531 46.3387 47.3741C46.5167 47.1961 46.6191 46.9492 46.6191 46.6975C46.6191 46.4458 46.5168 46.1989 46.3387 46.0209C46.1598 45.8429 45.9137 45.7405 45.6621 45.7405Z" fill="white"/>
<path d="M32.6688 18.8577C24.4824 18.8577 17.8223 25.5178 17.8223 33.7042C17.8223 41.8907 24.4824 48.5508 32.6688 48.5508C40.8552 48.5508 47.5154 41.8907 47.5154 33.7042C47.5154 25.5178 40.8552 18.8577 32.6688 18.8577ZM32.6688 46.6367C25.5378 46.6367 19.7364 40.8352 19.7364 33.7042C19.7364 26.5733 25.5378 20.7718 32.6688 20.7718C39.7999 20.7718 45.6013 26.5733 45.6013 33.7042C45.6013 40.8352 39.7999 46.6367 32.6688 46.6367Z" fill="white"/>
<path d="M38.722 26.2969L33.9817 31.037C33.5853 30.841 33.1394 30.7303 32.6681 30.7303C32.1966 30.7303 31.7509 30.841 31.3544 31.037L29.233 28.9156C28.8591 28.5418 28.2533 28.5418 27.8794 28.9156C27.5057 29.2893 27.5057 29.8953 27.8794 30.269L30.0009 32.3905C29.8048 32.7869 29.6942 33.2328 29.6942 33.7041C29.6942 35.3439 31.0282 36.678 32.6681 36.678C34.308 36.678 35.642 35.3439 35.642 33.7041C35.642 33.2328 35.5313 32.7869 35.3353 32.3905L39.9364 27.7894L40.0754 27.6503C40.4491 27.2766 40.4491 26.6706 40.0754 26.2969C39.7017 25.9232 39.0959 25.9232 38.722 26.2969ZM32.6681 34.7641C32.0837 34.7641 31.6083 34.2886 31.6083 33.7042C31.6083 33.1199 32.0837 32.6444 32.6681 32.6444C33.2525 32.6444 33.7279 33.1199 33.7279 33.7042C33.7279 34.2886 33.2525 34.7641 32.6681 34.7641Z" fill="white"/>
<path d="M42.9008 32.7585H42.0142C41.4857 32.7585 41.0571 33.187 41.0571 33.7156C41.0571 34.2441 41.4857 34.6726 42.0142 34.6726H42.9008C43.4293 34.6726 43.8579 34.2441 43.8579 33.7156C43.8579 33.187 43.4293 32.7585 42.9008 32.7585Z" fill="white"/>
<path d="M23.3226 32.7351H22.436C21.9076 32.7351 21.479 33.1636 21.479 33.6921C21.479 34.2207 21.9076 34.6492 22.436 34.6492H23.3226C23.8511 34.6492 24.2797 34.2207 24.2797 33.6921C24.2797 33.1636 23.8511 32.7351 23.3226 32.7351Z" fill="white"/>
<path d="M32.6802 25.315C33.2086 25.315 33.6372 24.8866 33.6372 24.358V23.4714C33.6372 22.9429 33.2086 22.5144 32.6802 22.5144C32.1517 22.5144 31.7231 22.9429 31.7231 23.4714V24.358C31.7231 24.8866 32.1517 25.315 32.6802 25.315Z" fill="white"/>
<path d="M32.6567 42.0935C32.1283 42.0935 31.6997 42.522 31.6997 43.0505V43.9372C31.6997 44.4657 32.1283 44.8942 32.6567 44.8942C33.1852 44.8942 33.6138 44.4657 33.6138 43.9372V43.0505C33.6138 42.522 33.1852 42.0935 32.6567 42.0935Z" fill="white"/>
<path d="M3.95703 38.6525C3.70533 38.6525 3.45842 38.7549 3.28041 38.9329C3.1024 39.1109 3 39.3578 3 39.6095C3 39.8621 3.10231 40.1081 3.28041 40.2861C3.45851 40.4641 3.70533 40.5665 3.95703 40.5665C4.20873 40.5665 4.45564 40.4641 4.63356 40.2861C4.81156 40.1081 4.91406 39.8612 4.91406 39.6095C4.91406 39.3578 4.81166 39.1109 4.63356 38.9329C4.45564 38.7549 4.20873 38.6525 3.95703 38.6525Z" fill="white"/>
<defs>
<linearGradient id="paint0_linear" x1="0" y1="33" x2="66" y2="33" gradientUnits="userSpaceOnUse">
<stop stop-color="#00F38D"/>
<stop offset="1" stop-color="#009EFF"/>
</linearGradient>
</defs>
</svg>
