<svg width="28" height="28" viewBox="0 0 28 28" fill="none" xmlns="http://www.w3.org/2000/svg">
<g clip-path="url(#clip0)">
<path d="M15.3125 25.375H12.6875C12.4457 25.375 12.25 25.5707 12.25 25.8125V26.25C12.25 27.2151 13.0349 28 14 28C14.9651 28 15.7499 27.2151 15.7499 26.25V25.8125C15.7499 25.5707 15.5543 25.375 15.3125 25.375Z" fill="#868491"/>
<path d="M13.9995 25.375H12.6875C12.4457 25.375 12.25 25.5707 12.25 25.8125V26.25C12.25 27.215 13.0346 27.9997 13.9995 27.9999V25.375Z" fill="#5C546A"/>
<path d="M20.8894 2.72858C18.8446 0.806841 16.1662 -0.155699 13.3571 0.0205014C8.23792 0.339051 4.10224 4.60931 3.94245 9.74236C3.82454 13.5457 5.8223 17.0473 9.15649 18.8814C9.98532 19.3377 10.5001 20.214 10.5001 21.1689V24.5C10.5001 25.4652 11.285 26.25 12.2501 26.25H15.7501C16.7152 26.25 17.5 25.4652 17.5 24.5V21.1689C17.5 20.2149 18.0187 19.3364 18.8544 18.8759C22.0668 17.1037 24.0624 13.7268 24.0624 10.0628C24.0624 7.29683 22.9059 4.62359 20.8894 2.72858Z" fill="#FFCD00"/>
<path d="M13.9999 17.0627C17.8658 17.0627 20.9998 13.9287 20.9998 10.0628C20.9998 6.19685 17.8658 3.06289 13.9999 3.06289C10.134 3.06289 7 6.19685 7 10.0628C7 13.9287 10.134 17.0627 13.9999 17.0627Z" fill="#FFE671"/>
<path d="M15.5299 12.6877C14.9484 12.6877 14.6511 12.3485 14.4345 12.1011C14.2435 11.8832 14.1674 11.8127 13.997 11.8127C13.8274 11.8127 13.7518 11.8832 13.5616 12.1007C13.3574 12.3344 13.0485 12.6877 12.467 12.6877C11.886 12.6877 11.5771 12.3344 11.3729 12.1007C11.1827 11.8832 11.1071 11.8127 10.9375 11.8127C10.6957 11.8127 10.5 11.6171 10.5 11.3753C10.5 11.1334 10.6957 10.9378 10.9375 10.9378C11.5185 10.9378 11.8274 11.2911 12.0317 11.5248C12.2218 11.7423 12.2974 11.8127 12.467 11.8127C12.6367 11.8127 12.7127 11.7423 12.9028 11.5248C13.107 11.2911 13.4159 10.9378 13.997 10.9378C14.5785 10.9378 14.8758 11.277 15.0924 11.5244C15.2834 11.7423 15.3595 11.8127 15.5299 11.8127C15.6999 11.8127 15.776 11.7423 15.967 11.5248C16.1716 11.2911 16.4805 10.9378 17.0624 10.9378C17.3042 10.9378 17.4999 11.1334 17.4999 11.3753C17.4999 11.6171 17.3042 11.8127 17.0624 11.8127C16.8919 11.8127 16.8159 11.8832 16.6249 12.1011C16.4203 12.3348 16.1114 12.6877 15.5299 12.6877Z" fill="white"/>
<path d="M12.6873 21.0001C12.486 21.0001 12.3049 20.8604 12.26 20.6557L10.0726 10.5934C10.0213 10.3572 10.1713 10.1243 10.4071 10.0726C10.6446 10.0205 10.8762 10.1713 10.9279 10.4071L13.1153 20.4695C13.1666 20.7057 13.0166 20.9386 12.7808 20.9903C12.7492 20.9972 12.718 21.0001 12.6873 21.0001Z" fill="#5C546A"/>
<path d="M15.3131 21.0001C15.2824 21.0001 15.2512 20.9971 15.2196 20.9903C14.9837 20.9386 14.8338 20.7057 14.8851 20.4695L17.0725 10.4071C17.1242 10.1713 17.3549 10.0209 17.5933 10.0726C17.8292 10.1243 17.9791 10.3572 17.9278 10.5934L15.7404 20.6557C15.6956 20.8604 15.5144 21.0001 15.3131 21.0001Z" fill="#5C546A"/>
<path d="M10.4248 20.5626C10.4713 20.7591 10.4999 20.9614 10.4999 21.1689V24.5C10.4999 25.4652 11.2848 26.25 12.2499 26.25H15.7499C16.715 26.25 17.4998 25.4652 17.4998 24.5V21.1689C17.4998 20.9616 17.5287 20.7592 17.5755 20.5626H10.4248Z" fill="#B4B6BC"/>
<path d="M13.9996 20.5626H10.4248C10.4713 20.7591 10.4999 20.9614 10.4999 21.1689V24.5C10.4999 25.4652 11.2848 26.25 12.2499 26.25H13.9996V20.5626Z" fill="#868491"/>
<path d="M17.4999 21.8751H14V22.7501H17.4999V21.8751Z" fill="#868491"/>
<path d="M17.4999 23.6251H14V24.5001H17.4999V23.6251Z" fill="#868491"/>
<path d="M13.9999 21.8751H10.5V22.7501H13.9999V21.8751Z" fill="#5C546A"/>
<path d="M13.9999 23.6251H10.5V24.5001H13.9999V23.6251Z" fill="#5C546A"/>
</g>
<defs>
<clipPath id="clip0">
<rect width="28" height="28" fill="white"/>
</clipPath>
</defs>
</svg>
