<svg width="40" height="40" viewBox="0 0 40 40" fill="none" xmlns="http://www.w3.org/2000/svg">
<path d="M28.2607 35.2174H30.4782C30.4497 35.077 30.4347 34.9316 30.4347 34.7826C30.4347 33.582 31.408 32.6087 32.6086 32.6087H28.2607V35.2174Z" fill="#ACABB1"/>
<path d="M25.6525 32.6087H21.3047C22.5053 32.6087 23.4786 33.582 23.4786 34.7826C23.4786 34.9316 23.4636 35.077 23.435 35.2174H25.6525V32.6087Z" fill="#ACABB1"/>
<path d="M25.6523 20.4348V23.0435H28.261V20.4348H26.9567H25.6523Z" fill="#ACABB1"/>
<path d="M28.261 26.5217H25.6523V32.6087H28.261V26.5217Z" fill="#ACABB1"/>
<path d="M25.6523 35.2174V36.9565H28.261V35.2174V32.6087H25.6523V35.2174Z" fill="#565659"/>
<path d="M26.9569 3.04349H20.0004L19.1309 10.8696H26.9569V3.04349Z" fill="#CCF7F9"/>
<path d="M26.9569 16.087H19.1309V20.4348H25.6526H26.9569V16.087Z" fill="#CCF7F9"/>
<path d="M26.9561 20.4348H28.2604H34.7821V16.087H26.9561V20.4348Z" fill="#00D7DF"/>
<path d="M34.7821 10.8696L33.9126 3.04349H26.9561V10.8696H34.7821Z" fill="#00D7DF"/>
<path d="M19.1309 23.0435V26.5217H25.6526H28.2613H34.783V23.0435H28.2613H25.6526H19.1309Z" fill="#00A1A7"/>
<path d="M21.3048 32.6087C20.1042 32.6087 19.1309 33.582 19.1309 34.7826C19.1309 35.9832 20.1042 36.9565 21.3048 36.9565C22.3564 36.9565 23.2336 36.2096 23.4351 35.2174C23.4636 35.077 23.4787 34.9316 23.4787 34.7826C23.4787 33.582 22.5054 32.6087 21.3048 32.6087Z" fill="#565659"/>
<path d="M30.4346 34.7826C30.4346 34.9316 30.4496 35.077 30.4781 35.2174C30.6796 36.2096 31.5568 36.9565 32.6085 36.9565C33.8091 36.9565 34.7824 35.9832 34.7824 34.7826C34.7824 33.582 33.8091 32.6087 32.6085 32.6087C31.4079 32.6087 30.4346 33.582 30.4346 34.7826Z" fill="#565659"/>
<path d="M0 10.8696V36.9566H2.6087V34.348H16.5217V16.087H19.1304V10.8696H0ZM13.913 31.7392H2.6087V23.9131H13.913V31.7392ZM13.913 21.3044H2.6087V13.4783H13.913V21.3044Z" fill="#A0815C"/>
<path d="M26.9569 10.8696H19.1309V16.087H26.9569H34.783H37.3917V36.9566H40.0004V10.8696H26.9569Z" fill="#786145"/>
<path d="M2.6084 13.4783V21.3044H13.9127V13.4783H2.6084ZM11.3041 18.6957H5.21709V16.087H11.3041V18.6957Z" fill="#B39A7D"/>
<path d="M11.3047 16.087H5.21777V18.6957H11.3047V16.087Z" fill="#50412E"/>
<path d="M2.6084 31.7391H13.9127V23.913H2.6084V31.7391ZM5.21709 26.5217H11.3041V29.1304H5.21709V26.5217Z" fill="#B39A7D"/>
<path d="M11.3047 26.5217H5.21777V29.1304H11.3047V26.5217Z" fill="#50412E"/>
</svg>
