<svg width="41" height="41" viewBox="0 0 41 41" fill="none" xmlns="http://www.w3.org/2000/svg">
<path d="M29.4032 41H11.5964C10.2675 41 9.18945 39.922 9.18945 38.593V2.40698C9.18945 1.07802 10.2675 0 11.5964 0H29.4025C30.7321 0 31.8101 1.07802 31.8101 2.40698V38.5923C31.8101 39.922 30.7321 41 29.4032 41Z" fill="#424A60"/>
<path d="M31.8101 4.24138H9.18945V32.5172H31.8101V4.24138Z" fill="#E7ECED"/>
<path d="M20.4996 38.8793C21.6708 38.8793 22.6203 37.9299 22.6203 36.7586C22.6203 35.5874 21.6708 34.6379 20.4996 34.6379C19.3284 34.6379 18.3789 35.5874 18.3789 36.7586C18.3789 37.9299 19.3284 38.8793 20.4996 38.8793Z" fill="#262B35"/>
<path d="M20.5003 2.82758H17.6727C17.2818 2.82758 16.9658 2.5116 16.9658 2.12068C16.9658 1.72977 17.2818 1.41379 17.6727 1.41379H20.5003C20.8912 1.41379 21.2072 1.72977 21.2072 2.12068C21.2072 2.5116 20.8912 2.82758 20.5003 2.82758Z" fill="#262B35"/>
<path d="M23.3279 2.82758H22.621C22.23 2.82758 21.9141 2.5116 21.9141 2.12068C21.9141 1.72977 22.23 1.41379 22.621 1.41379H23.3279C23.7188 1.41379 24.0348 1.72977 24.0348 2.12068C24.0348 2.5116 23.7188 2.82758 23.3279 2.82758Z" fill="#262B35"/>
<path d="M21.8865 12.0307H19.1127C18.7076 12.0307 18.3789 11.702 18.3789 11.2969V8.52305C18.3789 8.118 18.7076 7.78929 19.1127 7.78929H21.8865C22.2916 7.78929 22.6203 8.118 22.6203 8.52305V11.2969C22.6203 11.702 22.2916 12.0307 21.8865 12.0307Z" fill="#3083C9"/>
<path d="M15.5252 12.0307H12.7513C12.3463 12.0307 12.0176 11.702 12.0176 11.2969V8.52305C12.0176 8.118 12.3463 7.78929 12.7513 7.78929H15.5252C15.9303 7.78929 16.259 8.118 16.259 8.52305V11.2969C16.259 11.702 15.9303 12.0307 15.5252 12.0307Z" fill="#88C057"/>
<path d="M28.2488 12.0307H25.475C25.0699 12.0307 24.7412 11.702 24.7412 11.2969V8.52305C24.7412 8.118 25.0699 7.78929 25.475 7.78929H28.2488C28.6539 7.78929 28.9826 8.118 28.9826 8.52305V11.2969C28.9826 11.702 28.6539 12.0307 28.2488 12.0307Z" fill="#DC691D"/>
<path d="M21.8865 18.3793H19.1127C18.7076 18.3793 18.3789 18.0506 18.3789 17.6456V14.8717C18.3789 14.4666 18.7076 14.1379 19.1127 14.1379H21.8865C22.2916 14.1379 22.6203 14.4666 22.6203 14.8717V17.6456C22.6203 18.0506 22.2916 18.3793 21.8865 18.3793Z" fill="#EBBA16"/>
<path d="M15.5252 18.3793H12.7513C12.3463 18.3793 12.0176 18.0506 12.0176 17.6456V14.8717C12.0176 14.4666 12.3463 14.1379 12.7513 14.1379H15.5252C15.9303 14.1379 16.259 14.4666 16.259 14.8717V17.6456C16.259 18.0506 15.9303 18.3793 15.5252 18.3793Z" fill="#7383BF"/>
<path d="M28.2488 18.3793H25.475C25.0699 18.3793 24.7412 18.0506 24.7412 17.6456V14.8717C24.7412 14.4666 25.0699 14.1379 25.475 14.1379H28.2488C28.6539 14.1379 28.9826 14.4666 28.9826 14.8717V17.6456C28.9826 18.0506 28.6539 18.3793 28.2488 18.3793Z" fill="#DD352E"/>
<path d="M21.8865 24.7414H19.1127C18.7076 24.7414 18.3789 24.4127 18.3789 24.0076V21.2338C18.3789 20.8287 18.7076 20.5 19.1127 20.5H21.8865C22.2916 20.5 22.6203 20.8287 22.6203 21.2338V24.0076C22.6203 24.4127 22.2916 24.7414 21.8865 24.7414Z" fill="#A485BE"/>
<path d="M15.5252 24.7414H12.7513C12.3463 24.7414 12.0176 24.4127 12.0176 24.0076V21.2338C12.0176 20.8287 12.3463 20.5 12.7513 20.5H15.5252C15.9303 20.5 16.259 20.8287 16.259 21.2338V24.0076C16.259 24.4127 15.9303 24.7414 15.5252 24.7414Z" fill="#EA6248"/>
<path d="M28.2488 24.7414H25.475C25.0699 24.7414 24.7412 24.4127 24.7412 24.0076V21.2338C24.7412 20.8287 25.0699 20.5 25.475 20.5H28.2488C28.6539 20.5 28.9826 20.8287 28.9826 21.2338V24.0076C28.9826 24.4127 28.6539 24.7414 28.2488 24.7414Z" fill="#25AE88"/>
</svg>
