<svg width="32" height="32" viewBox="0 0 32 32" fill="none" xmlns="http://www.w3.org/2000/svg">
<path d="M2.20703 3.31034H29.7932V19.3103H2.20703V3.31034Z" fill="#565659"/>
<path d="M3.8623 4.96553H28.1382V17.6552H3.8623V4.96553Z" fill="#95B4DB"/>
<path d="M29.7931 19.3103H2.2069L0 28.6896H32L29.7931 19.3103Z" fill="#595765"/>
<path d="M3.8623 4.96553V16L25.9313 4.96553H3.8623Z" fill="#AACEFA"/>
<path d="M25.9313 4.96553L3.8623 16V17.6552H28.1382V4.96553H25.9313Z" fill="#95B4DB"/>
<path d="M28.6898 23.1724H3.31051C3.00583 23.1724 2.75879 23.4195 2.75879 23.7242C2.75879 24.0288 3.00583 24.2759 3.31051 24.2759H28.6898C28.9945 24.2759 29.2415 24.0288 29.2415 23.7242C29.2415 23.4195 28.9945 23.1724 28.6898 23.1724Z" fill="#414042"/>
<path d="M28.1381 20.9655H3.86227C3.55758 20.9655 3.31055 21.2126 3.31055 21.5173C3.31055 21.8219 3.55758 22.069 3.86227 22.069H28.1381C28.4428 22.069 28.6899 21.8219 28.6899 21.5173C28.6899 21.2126 28.4428 20.9655 28.1381 20.9655Z" fill="#414042"/>
</svg>
