<svg width="30" height="39" viewBox="0 0 30 39" fill="none" xmlns="http://www.w3.org/2000/svg">
<path d="M27.7909 39H1.79534C0.803535 39 0 38.1965 0 37.2047V1.79534C0 0.803535 0.803535 0 1.79534 0H27.7909C28.7827 0 29.5862 0.803535 29.5862 1.79534V37.2047C29.5862 38.1965 28.7827 39 27.7909 39Z" fill="#D6D9DF"/>
<path d="M27.7909 0H1.79534C0.803535 0 0 0.803535 0 1.79534V8.06897H29.5862V1.79534C29.5862 0.803535 28.7827 0 27.7909 0Z" fill="#EAEBF0"/>
<path d="M19.4997 1.34485H10.0859V6.72416H19.4997V1.34485Z" fill="#A4CA83"/>
<path d="M14.7933 34.9655C21.1065 34.9655 26.2244 29.8477 26.2244 23.5345C26.2244 17.2213 21.1065 12.1035 14.7933 12.1035C8.48015 12.1035 3.3623 17.2213 3.3623 23.5345C3.3623 29.8477 8.48015 34.9655 14.7933 34.9655Z" fill="#EAEBF0"/>
<path d="M14.7931 32.2758C19.6209 32.2758 23.5345 28.3622 23.5345 23.5345C23.5345 18.7067 19.6209 14.7931 14.7931 14.7931C9.96541 14.7931 6.05176 18.7067 6.05176 23.5345C6.05176 28.3622 9.96541 32.2758 14.7931 32.2758Z" fill="#7383BF"/>
<path d="M23.0214 23.5345C21.423 25.58 18.9378 26.8966 16.1379 26.8966H14.1206C11.8526 26.8966 9.85348 28.0195 8.63574 29.7375C10.2159 31.3056 12.3905 32.2759 14.793 32.2759C19.621 32.2759 23.5344 28.3624 23.5344 23.5345C23.5344 23.3066 23.1915 23.3173 23.0214 23.5345Z" fill="#556080"/>
<path d="M9.37021 21.5173C9.27002 21.5173 9.16781 21.4951 9.07165 21.4473C8.73881 21.2819 8.60366 20.8785 8.7684 20.5456C9.91352 18.2419 12.2219 16.8104 14.7932 16.8104C15.1644 16.8104 15.4656 17.1109 15.4656 17.4828C15.4656 17.8546 15.1644 18.1552 14.7932 18.1552C12.7356 18.1552 10.8885 19.3003 9.97269 21.1441C9.85502 21.3808 9.61698 21.5173 9.37021 21.5173Z" fill="#BFCAEF"/>
<path d="M8.74175 23.5345C9.11311 23.5345 9.41416 23.2334 9.41416 22.8621C9.41416 22.4907 9.11311 22.1896 8.74175 22.1896C8.37039 22.1896 8.06934 22.4907 8.06934 22.8621C8.06934 23.2334 8.37039 23.5345 8.74175 23.5345Z" fill="#BFCAEF"/>
<path d="M21.5171 26.8965C21.8885 26.8965 22.1896 26.5955 22.1896 26.2241C22.1896 25.8527 21.8885 25.5517 21.5171 25.5517C21.1458 25.5517 20.8447 25.8527 20.8447 26.2241C20.8447 26.5955 21.1458 26.8965 21.5171 26.8965Z" fill="#7383BF"/>
<path d="M11.4312 28.9138C11.8026 28.9138 12.1036 28.6127 12.1036 28.2414C12.1036 27.87 11.8026 27.569 11.4312 27.569C11.0598 27.569 10.7588 27.87 10.7588 28.2414C10.7588 28.6127 11.0598 28.9138 11.4312 28.9138Z" fill="#7383BF"/>
<path d="M13.4478 30.931C13.8192 30.931 14.1202 30.63 14.1202 30.2586C14.1202 29.8872 13.8192 29.5862 13.4478 29.5862C13.0764 29.5862 12.7754 29.8872 12.7754 30.2586C12.7754 30.63 13.0764 30.931 13.4478 30.931Z" fill="#7383BF"/>
<path d="M15.4654 28.9138C15.8367 28.9138 16.1378 28.6127 16.1378 28.2414C16.1378 27.87 15.8367 27.569 15.4654 27.569C15.094 27.569 14.793 27.87 14.793 28.2414C14.793 28.6127 15.094 28.9138 15.4654 28.9138Z" fill="#7383BF"/>
<path d="M19.5005 28.9138C19.8719 28.9138 20.173 28.6127 20.173 28.2414C20.173 27.87 19.8719 27.569 19.5005 27.569C19.1292 27.569 18.8281 27.87 18.8281 28.2414C18.8281 28.6127 19.1292 28.9138 19.5005 28.9138Z" fill="#7383BF"/>
<path d="M17.483 30.931C17.8543 30.931 18.1554 30.63 18.1554 30.2586C18.1554 29.8872 17.8543 29.5862 17.483 29.5862C17.1116 29.5862 16.8105 29.8872 16.8105 30.2586C16.8105 30.63 17.1116 30.931 17.483 30.931Z" fill="#7383BF"/>
<path d="M6.72394 4.03445C6.72394 2.92026 5.82088 2.01721 4.70669 2.01721C3.5925 2.01721 2.68945 2.92026 2.68945 4.03445C2.68945 4.14944 2.70492 4.26038 2.72307 4.37066C2.70492 4.48094 2.68945 4.59188 2.68945 4.70687C2.68945 5.82106 3.5925 6.72411 4.70669 6.72411C5.82088 6.72411 6.72394 5.82106 6.72394 4.70687C6.72394 4.59188 6.70847 4.48094 6.69032 4.37066C6.70847 4.26038 6.72394 4.14944 6.72394 4.03445Z" fill="#999A9F"/>
<path d="M4.70669 6.05169C5.82079 6.05169 6.72394 5.14854 6.72394 4.03445C6.72394 2.92036 5.82079 2.01721 4.70669 2.01721C3.5926 2.01721 2.68945 2.92036 2.68945 4.03445C2.68945 5.14854 3.5926 6.05169 4.70669 6.05169Z" fill="#C2C4C8"/>
<path d="M26.2239 4.03445C26.2239 2.92026 25.3209 2.01721 24.2067 2.01721C23.0925 2.01721 22.1895 2.92026 22.1895 4.03445C22.1895 4.14944 22.2049 4.26038 22.2231 4.37066C22.2049 4.48094 22.1895 4.59188 22.1895 4.70687C22.1895 5.82106 23.0925 6.72411 24.2067 6.72411C25.3209 6.72411 26.2239 5.82106 26.2239 4.70687C26.2239 4.59188 26.2085 4.48094 26.1903 4.37066C26.2085 4.26038 26.2239 4.14944 26.2239 4.03445Z" fill="#999A9F"/>
<path d="M24.2067 6.05169C25.3208 6.05169 26.2239 5.14854 26.2239 4.03445C26.2239 2.92036 25.3208 2.01721 24.2067 2.01721C23.0926 2.01721 22.1895 2.92036 22.1895 4.03445C22.1895 5.14854 23.0926 6.05169 24.2067 6.05169Z" fill="#C2C4C8"/>
</svg>
