<svg width="36" height="36" viewBox="0 0 36 36" fill="none" xmlns="http://www.w3.org/2000/svg">
<path d="M8.6897 11.793C8.00635 11.7982 7.45346 12.3511 7.44824 13.0345V22.9655C7.44824 23.6511 8.00415 24.207 8.6897 24.207C9.37524 24.207 9.93115 23.6511 9.93115 22.9655V13.0345C9.92896 12.3497 9.37442 11.7952 8.6897 11.793Z" fill="#41769E"/>
<path d="M24.207 8.68963C24.2048 8.00491 23.6502 7.45037 22.9655 7.44817H13.0344C12.3511 7.45339 11.7982 8.00628 11.793 8.68963C11.7952 9.37435 12.3497 9.92889 13.0344 9.93109H22.9655C23.6502 9.92889 24.2048 9.37435 24.207 8.68963Z" fill="#41769E"/>
<path d="M27.3108 11.793C26.6261 11.7952 26.0715 12.3497 26.0693 13.0345V22.9655C26.0715 23.6503 26.6261 24.2048 27.3108 24.207C27.9941 24.2018 28.547 23.6489 28.552 22.9655V13.0345C28.55 12.3497 27.9955 11.7952 27.3108 11.793Z" fill="#41769E"/>
<path d="M21.1032 32.8966C21.1032 31.1828 17.9998 26.6896 17.9998 26.6896C17.9998 26.6896 14.8965 31.1828 14.8965 32.8966C14.8965 34.6105 16.286 36 17.9998 36C19.7137 36 21.1032 34.6105 21.1032 32.8966Z" fill="#2488FF"/>
<path d="M24.207 13.0344C23.5212 13.0344 22.9655 12.4788 22.9655 11.793V9.93108H18V18H26.0689V13.0344H24.207Z" fill="#96C8EF"/>
<path d="M9.93066 18V22.9655H16.7625L20.4822 19.2415L19.8615 22.9655H26.0685V18H9.93066Z" fill="#78B9EB"/>
<path d="M17.9996 9.93108H13.034V11.793C13.034 12.4788 12.4784 13.0344 11.7926 13.0344H9.93066V18H17.9996V9.93108Z" fill="#5AAAE7"/>
<path d="M13.0342 0H17.9997V7.44818H13.0342V0Z" fill="#5AAAE7"/>
<path d="M18 0H22.9655V7.44818H18V0Z" fill="#96C8EF"/>
<path d="M0 18H7.44818V22.9655H0V18Z" fill="#78B9EB"/>
<path d="M0 13.0345H7.44818V18H0V13.0345Z" fill="#5AAAE7"/>
<path d="M28.5518 18H35.9999V22.9655H28.5518V18Z" fill="#78B9EB"/>
<path d="M28.5518 13.0345H35.9999V18H28.5518V13.0345Z" fill="#96C8EF"/>
</svg>
