<svg width="44" height="44" viewBox="0 0 44 44" fill="none" xmlns="http://www.w3.org/2000/svg">
<g clip-path="url(#clip0)">
<path d="M14.4136 44H12.8964C12.4774 44 12.1377 43.6603 12.1377 43.2413V41.7241H15.1721V43.2413C15.1722 43.6603 14.8325 44 14.4136 44Z" fill="#AFB9D2"/>
<path d="M31.103 44H29.5858C29.1669 44 28.8271 43.6603 28.8271 43.2413V41.7241H31.8616V43.2413C31.8617 43.6603 31.522 44 31.103 44Z" fill="#AFB9D2"/>
<path d="M31.103 42.4828H12.8961C12.0582 42.4828 11.3789 41.8035 11.3789 40.9655V1.51723C11.3789 0.67925 12.0582 0 12.8961 0H31.103C31.941 0 32.6202 0.67925 32.6202 1.51723V40.9655C32.6202 41.8035 31.941 42.4828 31.103 42.4828Z" fill="#00D7D7"/>
<path d="M32.6202 13.6552H11.3789V15.1724H32.6202V13.6552Z" fill="#00BEBE"/>
<path d="M30.3452 12.1379H24.2762C23.8573 12.1379 23.5176 11.7982 23.5176 11.3792C23.5176 10.9603 23.8573 10.6206 24.2762 10.6206H30.3452C30.7642 10.6206 31.1039 10.9603 31.1039 11.3792C31.1039 11.7983 30.7642 12.1379 30.3452 12.1379Z" fill="#E4EAF6"/>
<path d="M24.2762 16.6897H30.3452C30.7642 16.6897 31.1039 17.0294 31.1039 17.4483C31.1039 17.8673 30.7642 18.207 30.3452 18.207H24.2762C23.8573 18.207 23.5176 17.8673 23.5176 17.4483C23.5176 17.0293 23.8573 16.6897 24.2762 16.6897Z" fill="#E4EAF6"/>
<path d="M11.3789 40.9655C11.3789 41.8034 12.0582 42.4828 12.8961 42.4828H31.103C31.9409 42.4828 32.6202 41.8034 32.6202 40.9655V39.4483H11.3789V40.9655Z" fill="#00BEBE"/>
</g>
<defs>
<clipPath id="clip0">
<rect width="44" height="44" fill="white"/>
</clipPath>
</defs>
</svg>
