<svg width="44" height="44" viewBox="0 0 44 44" fill="none" xmlns="http://www.w3.org/2000/svg">
<path d="M42.7713 4.30341H26.9844H1.22873C0.550258 4.30341 0 4.85366 0 5.53214V28.0473L21.6118 31.1455L44 28.0473V5.53214C43.9999 4.85366 43.4497 4.30341 42.7713 4.30341Z" fill="#4D4D4D"/>
<path d="M42.7708 4.30341H26.9839L10.0996 32.2125H18.0851H25.9149H42.7708C43.4492 32.2125 43.9995 31.6622 43.9995 30.9828V28.0474V5.53214C43.9995 4.85366 43.4492 4.30341 42.7708 4.30341Z" fill="#3B3B3B"/>
<path d="M25.9154 31.6021L26.8369 39.2195H17.1641L18.0856 31.6021H25.9154Z" fill="#808080"/>
<path d="M26.5264 36.6565L25.9149 31.6021H18.0851L17.4736 36.6565H26.5264Z" fill="#616161"/>
<path d="M12.6195 28.0473H0V30.9828C0 31.6622 0.550258 32.2125 1.22873 32.2125H10.1001H18.0856H25.9155H42.7714C43.4497 32.2125 44 31.6622 44 30.9828V28.0473H12.6195Z" fill="#CCCCCC"/>
<path d="M12.6195 28.0473L10.0996 32.2125H42.7708C43.4492 32.2125 43.9995 31.6622 43.9995 30.9828V28.0474L12.6195 28.0473Z" fill="#ADADAD"/>
<path d="M30.2762 39.6965H13.7236C13.3677 39.6965 13.0791 39.4079 13.0791 39.052C13.0791 38.696 13.3677 38.4074 13.7236 38.4074H30.2761C30.6321 38.4074 30.9207 38.696 30.9207 39.052C30.9207 39.4079 30.6322 39.6965 30.2762 39.6965Z" fill="#CCCCCC"/>
</svg>
