<svg width="44" height="44" viewBox="0 0 44 44" fill="none" xmlns="http://www.w3.org/2000/svg">
<path d="M36.8759 22.232L25.8672 32.3125H18.0469L15.4688 28.1103L18.0469 24.5781C19.3876 24.5781 20.7885 24.5006 22 24.3717C27.2079 23.6754 31.0234 21.3296 31.0234 15.5547C31.0234 13.1313 32.6734 11.0688 35.0195 10.5273L36.1797 10.2695L36.5406 11.378C37.5718 14.4976 37.7007 18.7256 36.8759 22.232Z" fill="#F03800"/>
<path d="M36.8759 22.232L25.8672 32.3125H22V24.3717C27.2079 23.6754 31.0234 21.3296 31.0234 15.5547C31.0234 13.1313 32.6734 11.0688 35.0195 10.5273L36.1797 10.2695L36.5406 11.378C37.5718 14.4976 37.7007 18.7256 36.8759 22.232Z" fill="#CD0000"/>
<path d="M9.02344 14.2656C4.04779 14.2656 0 18.3134 0 23.2891V31.0234H18.0469V23.2891C18.0469 18.3134 13.9991 14.2656 9.02344 14.2656Z" fill="#F03800"/>
<path d="M15.4688 16.8438H2.57812C1.15411 16.8438 0 15.6896 0 14.2656C0 12.8416 1.15411 11.6875 2.57812 11.6875H15.4688C16.8928 11.6875 18.0469 12.8416 18.0469 14.2656C18.0469 15.6896 16.8928 16.8438 15.4688 16.8438Z" fill="#537983"/>
<path d="M23.2891 7.82031H29.7344V10.3984H23.2891V7.82031Z" fill="#3E5959"/>
<path d="M38.7578 11.6875H31.0234C29.5994 11.6875 28.4453 10.5334 28.4453 9.10938C28.4453 7.68536 29.5994 6.53125 31.0234 6.53125H38.7578V11.6875Z" fill="#CD0000"/>
<path d="M9.02344 37.4688C5.46375 37.4688 2.57812 34.5831 2.57812 31.0234C2.57812 27.4637 5.46375 24.5781 9.02344 24.5781C12.5831 24.5781 15.4688 27.4637 15.4688 31.0234C15.4688 34.5831 12.5831 37.4688 9.02344 37.4688Z" fill="#537983"/>
<path d="M9.02344 34.8906C6.89111 34.8906 5.15625 33.1558 5.15625 31.0234C5.15625 28.8911 6.89111 27.1562 9.02344 27.1562C11.1558 27.1562 12.8906 28.8911 12.8906 31.0234C12.8906 33.1558 11.1558 34.8906 9.02344 34.8906Z" fill="#E0F4FF"/>
<path d="M9.02344 22C4.04779 22 0 26.0478 0 31.0234V32.3125H18.0469V31.0234C18.0469 26.0478 13.9991 22 9.02344 22Z" fill="#FF641A"/>
<path d="M34.8906 37.4688C31.3309 37.4688 28.4453 34.5831 28.4453 31.0234C28.4453 27.4637 31.3309 24.5781 34.8906 24.5781C38.4503 24.5781 41.4219 27.4637 41.4219 31.0234C41.4219 34.5831 38.4503 37.4688 34.8906 37.4688Z" fill="#3E5959"/>
<path d="M34.8906 34.8906C32.7583 34.8906 31.0234 33.1558 31.0234 31.0234C31.0234 28.8911 32.7583 27.1562 34.8906 27.1562C37.0229 27.1562 38.7578 28.8911 38.7578 31.0234C38.7578 33.1558 37.0229 34.8906 34.8906 34.8906Z" fill="#BBDCFF"/>
<path d="M36.8759 22.232C36.2314 22.0772 35.561 22 34.8906 22C29.915 22 25.8672 26.0478 25.8672 31.0234V32.3125H44V31.0234C44 26.7437 40.8979 23.1343 36.8759 22.232Z" fill="#F03800"/>
</svg>
