<svg width="37" height="37" viewBox="0 0 37 37" fill="none" xmlns="http://www.w3.org/2000/svg">
<g clip-path="url(#clip0)">
<path d="M27.75 12.1207V24.8793H28.3879C29.7971 24.8793 30.9397 23.7368 30.9397 22.3276V15.3104C30.9397 13.5489 29.5115 12.1207 27.75 12.1207Z" fill="#FEC9A3"/>
<path d="M30.3015 2.23276C30.3015 3.46595 29.3019 4.46552 28.0687 4.46552C26.8355 4.46552 25.8359 3.46595 25.8359 2.23276C25.8359 0.999571 26.8355 0 28.0687 0C29.3019 0 30.3015 0.999571 30.3015 2.23276Z" fill="#7A4321"/>
<path d="M18.1807 3.82758V7.65516C18.1807 10.1215 20.1798 12.1207 22.6462 12.1207C25.1126 12.1207 27.1117 10.1215 27.1117 7.65516V3.82758H18.1807Z" fill="#FEC9A3"/>
<path d="M20.0947 5.74139H21.3706V7.01726H20.0947V5.74139Z" fill="#7A4321"/>
<path d="M23.9229 5.74139H25.1987V7.01726H23.9229V5.74139Z" fill="#7A4321"/>
<path d="M22.6462 10.2069C21.5893 10.2069 20.7324 9.34997 20.7324 8.29309H22.0083C22.0083 8.64539 22.2939 8.93102 22.6462 8.93102C22.9985 8.93102 23.2841 8.64539 23.2841 8.29309H24.56C24.56 9.34997 23.7031 10.2069 22.6462 10.2069Z" fill="#FA996B"/>
<path d="M27.7503 21.0517L29.0262 28.069H16.2676L17.5434 21.0517H27.7503Z" fill="#4398D1"/>
<path d="M17.5432 14.6724H14.3535C14.3535 13.2632 15.4961 12.1207 16.9052 12.1207H28.388C29.7972 12.1207 30.9397 13.2632 30.9397 14.6724H27.7501V21.0517H17.5432V14.6724Z" fill="#4398D1"/>
<path d="M26.4745 28.0689H18.8193L19.4573 34.4483H25.8366L26.4745 28.0689Z" fill="#FEC9A3"/>
<path d="M22.0088 28.0689H23.2847V34.4483H22.0088V28.0689Z" fill="#F7BB8F"/>
<path d="M14.3534 21.0517C12.592 21.0517 11.1638 19.6235 11.1638 17.8621V14.6724C10.1069 14.6724 9.25 13.8155 9.25 12.7586V12.1207H12.4397C13.4965 12.1207 14.3534 12.9776 14.3534 14.0345V14.6724H17.5431V17.8621C17.5431 19.6235 16.1149 21.0517 14.3534 21.0517Z" fill="#FEC9A3"/>
<path d="M13.7158 14.6724H14.9917V18.5H13.7158V14.6724Z" fill="#F7BB8F"/>
<path d="M18.1811 34.4483H22.6467V37H18.1811C17.4765 37 16.9053 36.4287 16.9053 35.7241C16.9053 35.0195 17.4765 34.4483 18.1811 34.4483Z" fill="#965735"/>
<path d="M27.112 37H22.6465V34.4483H27.112C27.8166 34.4483 28.3879 35.0195 28.3879 35.7241C28.3879 36.4287 27.8166 37 27.112 37Z" fill="#965735"/>
<path d="M22.0083 0H23.2841C25.3979 0 27.1117 1.71382 27.1117 3.82759H18.1807C18.1807 1.71382 19.8945 0 22.0083 0Z" fill="#965735"/>
<path d="M23.2849 0H22.009C21.795 0.00124596 21.5817 0.0205583 21.3711 0.0573141C23.2114 0.368492 24.5589 1.96145 24.5607 3.82759H27.1125C27.1125 1.71382 25.3987 0 23.2849 0Z" fill="#7A472B"/>
<path d="M17.543 21.0517V22.9655C17.543 25.7842 19.8277 28.069 22.6464 28.069C25.4651 28.069 27.7499 25.7842 27.7499 22.9655V21.0517H17.543Z" fill="#F0F0ED"/>
<path d="M20.0947 12.1207L22.6465 15.9483L25.1982 12.1207H20.0947Z" fill="#FEC9A3"/>
<path d="M19.457 12.1207L20.095 16.5862L22.6467 15.9483L20.095 12.1207H19.457Z" fill="#F0F0ED"/>
<path d="M25.1982 12.1207L22.6465 15.9483L25.1982 16.5862L26.4741 12.1207H25.1982Z" fill="#F0F0ED"/>
<path d="M15.6295 12.1207H7.33641C6.63182 12.1207 6.06055 11.5494 6.06055 10.8448V8.2931C6.06055 7.58851 6.63182 7.01724 7.33641 7.01724H15.6295V12.1207Z" fill="#4398D1"/>
<path d="M7.97461 8.93106H15.6298V10.2069H7.97461V8.93106Z" fill="#388BC2"/>
<path d="M15.6295 7.01724H7.33641C6.63182 7.01724 6.06055 6.44597 6.06055 5.74138V3.18965C6.06055 2.48506 6.63182 1.91379 7.33641 1.91379H15.6295V7.01724Z" fill="#87CED9"/>
<path d="M7.97461 3.82758H15.6298V5.10344H7.97461V3.82758Z" fill="#6EBFCC"/>
<path d="M22.0088 34.4483H23.2847V37H22.0088V34.4483Z" fill="#7A472B"/>
<path d="M19.2891 26.8028C20.7945 28.1235 22.9335 28.4406 24.7576 27.6136C26.5813 26.7863 27.7519 24.9681 27.7501 22.9655V21.0517H27.3411C25.1734 24.0501 21.9729 25.801 19.2891 26.8028Z" fill="#E3E3E0"/>
</g>
<defs>
<clipPath id="clip0">
<rect width="37" height="37" fill="white"/>
</clipPath>
</defs>
</svg>
