<svg width="40" height="40" viewBox="0 0 40 40" fill="none" xmlns="http://www.w3.org/2000/svg">
<path d="M19.6426 17.7046C19.3155 17.6147 18.9803 17.5656 18.6288 17.5656C16.5276 17.5656 14.8188 19.2743 14.8188 21.3755C14.8188 23.4767 16.5276 25.1854 18.6288 25.1854C20.7299 25.1854 22.4387 23.4767 22.4387 21.3755C22.4387 21.024 22.3896 20.6806 22.2997 20.3617L32.9118 9.74956L34.6288 9.97848L40.0002 4.60699L35.9369 4.06739L35.3973 0.00402832L30.0258 5.37551L30.2547 7.09243L19.6426 17.7046Z" fill="white"/>
<path d="M19.037 14.0581L22.1765 10.9186C18.3257 9.61049 13.8863 10.4935 10.8203 13.5676C6.51171 17.8762 6.51171 24.8747 10.8203 29.1833C15.129 33.4919 22.1274 33.4919 26.4361 29.1833C29.5102 26.1092 30.3932 21.6779 29.085 17.819L25.9455 20.9585C26.06 22.9697 25.3487 25.0218 23.8117 26.5589C20.9501 29.4204 16.3063 29.4204 13.4448 26.5589C10.5832 23.6974 10.5832 19.0535 13.4448 16.192C14.9818 14.6549 17.0258 13.9437 19.037 14.0581Z" fill="white"/>
<path d="M31.7915 15.121C34.3669 20.5334 33.4103 27.1966 28.93 31.677C23.2397 37.3673 14.0174 37.3673 8.32703 31.677C2.63669 25.9866 2.63669 16.7643 8.32703 11.074C12.8074 6.59367 19.4706 5.64528 24.883 8.21247L27.8835 5.21196C20.7706 1.13225 11.5319 2.1297 5.45733 8.2043C-1.81911 15.4807 -1.81911 27.2702 5.45733 34.5385C12.7338 41.8149 24.5233 41.8149 31.7915 34.5385C37.8661 28.4639 38.8636 19.2252 34.7839 12.1123L31.7915 15.121Z" fill="white"/>
</svg>
