<svg width="33" height="30" viewBox="0 0 33 30" fill="none" xmlns="http://www.w3.org/2000/svg">
<path d="M20.6807 24.1277L15.5038 18.9295C16.8349 17.4018 17.5642 15.4797 17.5642 13.4787C17.5642 8.80364 13.6245 5 8.7821 5C3.93973 5 0 8.80364 0 13.4787C0 18.1538 3.93973 21.9575 8.7821 21.9575C10.6 21.9575 12.3324 21.4281 13.8135 20.4232L19.0297 25.6609C19.2477 25.8795 19.5409 26 19.8552 26C20.1526 26 20.4348 25.8905 20.649 25.6914C21.1042 25.2686 21.1187 24.5675 20.6807 24.1277ZM8.7821 7.21185C12.3614 7.21185 15.2732 10.0231 15.2732 13.4787C15.2732 16.9344 12.3614 19.7456 8.7821 19.7456C5.20282 19.7456 2.29098 16.9344 2.29098 13.4787C2.29098 10.0231 5.20282 7.21185 8.7821 7.21185Z" fill="#00C5FF"/>
<line x1="32.5" x2="32.5" y2="30" stroke="#C4C4C4"/>
</svg>
